<svg xmlns="http://www.w3.org/2000/svg" id="Layer_1" data-name="Layer 1" viewBox="0 0 337.5 255"><defs><style>.cls-1{fill:#fdfdfd}.cls-2,.cls-3{fill:none;stroke-linecap:round;stroke-linejoin:round;stroke-width:3px}.cls-2{stroke:#d2d7ee}.cls-3{stroke:#3f55af}</style></defs><title>Emptiness</title><polygon points="337.5 236.42 311.83 236.42 294.5 219 268 224.92 238.5 204.5 211.33 224.53 181.5 228.92 171.5 236.42 0 236.42 0 247.42 337.5 247.42 337.5 236.42" class="cls-1"/><g id="Layer_2" data-name="Layer 2"><g id="Layer_1-2" data-name="Layer 1-2"><path d="M119.78,202.2a12,12,0,0,0-15.68-6.49L93,200.31,53.88,106a15,15,0,0,0,4.63-17.55L50.92,70.11,23.21,81.61,30.8,99.92A15,15,0,0,0,46.49,109l39.13,94.34L74.54,208A12,12,0,0,0,68,223.61l4.72,9.63H130.4Z" class="cls-1"/><line x1="193.74" x2="170.88" y1="197.02" y2="188.39" class="cls-2"/><line x1="190.23" x2="199.36" y1="164.39" y2="175.01" class="cls-2"/><line x1="203.77" x2="206.32" y1="180.14" y2="183.11" class="cls-2"/><line x1="291.13" x2="271.93" y1="151.74" y2="175.52" class="cls-2"/><line x1="301.14" x2="283.87" y1="182.66" y2="188.74" class="cls-2"/><line x1="322.83" x2="332.5" y1="233.26" y2="233.26" class="cls-3"/><polyline points="1.5 233.26 166.75 233.62 178.5 224.92 208 221.5 239 197.02 268 224.92 286 217.5 304.5 233.26 311.83 233.26" class="cls-3"/><rect width="8" height="100.69" x="60.85" y="99.52" class="cls-3" transform="translate(-52.47 36.28) rotate(-22.53)"/><rect width="8" height="10.22" x="43.51" y="102.97" class="cls-3" transform="translate(-37.79 26.45) rotate(-22.53)"/><rect width="8" height="42.77" x="71.94" y="155.23" class="cls-3" transform="translate(-61.88 42.58) rotate(-22.53)"/><path d="M67.77,228.28,63,218.61a12,12,0,0,1,6.49-15.68l29.6-12.22a12,12,0,0,1,15.68,6.49l10.67,31.08" class="cls-3"/><path d="M18.21,76.61l27.71-11.5h0l7.59,18.31A15,15,0,0,1,45.4,103h0a15,15,0,0,1-19.6-8.11L18.21,76.61Z" class="cls-3"/><rect width="30" height="6.81" x="18.37" y="70.6" class="cls-3" transform="translate(-25.81 18.43) rotate(-22.53)"/></g></g></svg>