<svg xmlns="http://www.w3.org/2000/svg" viewBox="0 0 34 45"><defs><style>.cls-1,.cls-3{fill:none}.cls-1,.cls-2{stroke:#f1f3f7}.cls-1,.cls-2,.cls-3{stroke-linecap:round;stroke-linejoin:round;stroke-width:2px}.cls-2{fill:#f1f3f7}.cls-3{stroke:#3f55af}</style></defs><title>10</title><g id="Layer_2" data-name="Layer 2"><g id="Layer_1-2" data-name="Layer 1"><polyline points="4 28.2 4 34.77 33 34.77 33 28.2" class="cls-1"/><polyline points="10 20 18 28 18 4" class="cls-1"/><polyline points="26 20 18 28 18 4" class="cls-1"/><rect width="29" height="5" x="4" y="39" class="cls-2"/><polyline points="1 25.2 1 31.77 30 31.77 30 25.2" class="cls-3"/><polyline points="7 17 15 25 15 1" class="cls-3"/><polyline points="23 17 15 25 15 1" class="cls-3"/><line x1="23" x2="19.95" y1="41" y2="41" class="cls-3"/><polyline points="16.95 41 1 41 1 36 30 36 30 41 26 41" class="cls-3"/></g></g></svg>