<svg xmlns="http://www.w3.org/2000/svg" viewBox="0 0 337.5 179.31"><defs><style>.cls-1{fill:#f1f3f7}.cls-2,.cls-4{fill:#fdd600}.cls-3,.cls-5{fill:none;stroke-linecap:round;stroke-linejoin:round;stroke-width:3px}.cls-3,.cls-4{stroke:#fdd600}.cls-4{stroke-miterlimit:10}.cls-5{stroke:#3f55af}.cls-6{fill:#fff}</style></defs><title>sandbox TMH v0.1</title><g id="Layer_2" data-name="Layer 2"><g id="Layer_1-2" data-name="Layer 1"><path d="M119.78,138.59a12,12,0,0,0-15.68-6.49L93,136.7,53.88,42.36a15,15,0,0,0,4.63-17.55L50.92,6.5,23.21,18,30.8,36.31a15,15,0,0,0,15.69,9.12l39.13,94.34-11.08,4.6A12,12,0,0,0,68,160l4.72,9.63h57.68Z" class="cls-1"/><polygon points="308.5 174.31 308.5 29.61 314 29.61 314 12.01 181.5 12.01 181.5 29.61 187.5 29.61 187.64 43.34 171.75 43.62 171.75 174.31 6.5 174.31 6.5 179.31 337.5 179.31 337.5 174.31 308.5 174.31" class="cls-1"/><circle cx="38.83" cy="149.39" r="2.16" class="cls-2" transform="matrix(0.04, -1, 1, 0.04, -112.03, 182.07)"/><line x1="41.34" x2="18.48" y1="133.41" y2="124.78" class="cls-3"/><line x1="37.83" x2="46.96" y1="100.78" y2="111.4" class="cls-3"/><line x1="51.37" x2="53.92" y1="116.53" y2="119.5" class="cls-3"/><circle cx="104.07" cy="102.05" r="2.21" class="cls-4" transform="translate(-38.33 133.14) rotate(-56.75)"/><line x1="138.73" x2="119.53" y1="88.13" y2="111.91" class="cls-3"/><line x1="148.74" x2="131.47" y1="119.05" y2="125.13" class="cls-3"/><line x1="322.83" x2="332.5" y1="169.65" y2="169.65" class="cls-5"/><polyline points="1.5 169.65 166.75 170.01 166.75 38.62 190.61 38.31 190.61 54.85 214.48 54.85 214.48 38.31 238.34 38.31 238.34 54.85 262.21 54.85 262.21 38.31 286.57 38.62 286.57 169.65 311.83 169.65" class="cls-5"/><path d="M256,161.31" class="cls-5"/><path d="M256,144.31" class="cls-5"/><line x1="261" x2="261" y1="166.31" y2="174.81" class="cls-6"/><line x1="261" x2="261" y1="155.31" y2="159.64" class="cls-6"/><rect width="8" height="100.69" x="60.84" y="35.92" class="cls-5" transform="translate(-28.1 31.42) rotate(-22.53)"/><rect width="8" height="10.22" x="43.51" y="39.37" class="cls-5" transform="translate(-13.42 21.59) rotate(-22.53)"/><rect width="8" height="42.77" x="71.93" y="91.63" class="cls-5" transform="translate(-37.5 37.71) rotate(-22.53)"/><path d="M67.77,164.67,63,155a12,12,0,0,1,6.49-15.68L99.09,127.1a12,12,0,0,1,15.68,6.49l10.67,31.08" class="cls-5"/><path d="M23.73,5.92h30a0,0,0,0,1,0,0V25.74a15,15,0,0,1-15,15h0a15,15,0,0,1-15-15V5.92a0,0,0,0,1,0,0Z" class="cls-5" transform="translate(-5.98 16.62) rotate(-22.53)"/><rect width="30" height="6.81" x="18.37" y="6.99" class="cls-5" transform="translate(-1.44 13.58) rotate(-22.53)"/><rect width="59" height="66" x="202.5" y="108.31" class="cls-6"/><polyline points="198 169.81 198 103.81 256 103.81 256 143.81" class="cls-5"/><line x1="256" x2="256" y1="161.31" y2="169.81" class="cls-5"/><line x1="256" x2="256" y1="150.31" y2="154.64" class="cls-5"/><polyline points="303 164.67 303 24.61 309 24.61 309 7.01 176.5 7.01 176.5 24.61 182.5 24.61 182.5 31.55" class="cls-5"/><line x1="295.5" x2="190.5" y1="24.81" y2="24.81" class="cls-5"/></g></g></svg>