<svg xmlns="http://www.w3.org/2000/svg" xmlns:xlink="http://www.w3.org/1999/xlink" width="240.77" height="81.99" viewBox="0 0 240.77 81.99"><defs><style>.d0276242-eb2d-4ca7-a364-579973fc0460{fill:none;stroke:#3f55af;stroke-linecap:round;stroke-linejoin:round;stroke-width:3px}.a55324b2-7cca-4b9e-bbcf-e6080fe09158{clip-path:url(#2ac4264a-79a5-413f-8c59-a6e761fac808)}.e92a2523-ec8f-4965-bb09-aef8b87832a5{fill:#3f55af}</style><clipPath id="2ac4264a-79a5-413f-8c59-a6e761fac808"><ellipse cx="118.27" cy="58.99" class="d0276242-eb2d-4ca7-a364-579973fc0460" rx="35" ry="17"/></clipPath></defs><title>404</title><g id="aafcc1df-7804-4014-b6a1-9501294986da" data-name="Layer 2"><g id="cac8d5d7-10a9-46c3-a75d-b83cd30861f4" data-name="Layer 1"><polygon points="37.63 6.5 68.77 24.48 68.77 60.41 37.63 78.4 6.5 60.43 6.5 24.44 37.63 6.5" class="5065c467-2392-41fa-ad28-3974eb9d9cd1"/><polyline points="50.1 63.31 32.63 73.4 1.5 55.43 1.5 19.44 32.63 1.5 63.77 19.48 63.77 38.82" class="d0276242-eb2d-4ca7-a364-579973fc0460"/><polyline points="63.77 45.99 63.77 55.41 57.05 59.3" class="d0276242-eb2d-4ca7-a364-579973fc0460"/><polyline points="51.76 26.41 32.63 37.45 6.27 21.99" class="d0276242-eb2d-4ca7-a364-579973fc0460"/><line x1="59.16" x2="55.74" y1="22.14" y2="24.11" class="d0276242-eb2d-4ca7-a364-579973fc0460"/><line x1="32.42" x2="32.42" y1="58.24" y2="37.47" class="d0276242-eb2d-4ca7-a364-579973fc0460"/><line x1="32.42" x2="32.42" y1="67.49" y2="62.99" class="d0276242-eb2d-4ca7-a364-579973fc0460"/><polygon points="209.63 6.5 240.77 24.48 240.77 60.41 209.63 78.4 178.5 60.43 178.5 24.44 209.63 6.5" class="5065c467-2392-41fa-ad28-3974eb9d9cd1"/><polyline points="222.1 63.31 204.63 73.4 173.5 55.43 173.5 19.44 204.63 1.5 235.77 19.48 235.77 38.82" class="d0276242-eb2d-4ca7-a364-579973fc0460"/><polyline points="235.77 45.99 235.77 55.41 229.05 59.3" class="d0276242-eb2d-4ca7-a364-579973fc0460"/><polyline points="223.76 26.41 204.63 37.45 178.27 22.99" class="d0276242-eb2d-4ca7-a364-579973fc0460"/><line x1="231.16" x2="227.74" y1="22.14" y2="24.11" class="d0276242-eb2d-4ca7-a364-579973fc0460"/><line x1="204.42" x2="204.42" y1="58.24" y2="37.47" class="d0276242-eb2d-4ca7-a364-579973fc0460"/><line x1="204.42" x2="204.42" y1="67.49" y2="62.99" class="d0276242-eb2d-4ca7-a364-579973fc0460"/><g class="a55324b2-7cca-4b9e-bbcf-e6080fe09158"><ellipse cx="118.27" cy="64.99" class="57ebb341-9457-489e-a11e-6e8e28911555" rx="35" ry="17"/></g><ellipse cx="118.27" cy="58.99" class="d0276242-eb2d-4ca7-a364-579973fc0460" rx="35" ry="17"/><path d="M89.27,27c-11.7,0-25,6-25,6" class="d0276242-eb2d-4ca7-a364-579973fc0460"/><path d="M148.27,27c11.7,0,25,6,25,6" class="d0276242-eb2d-4ca7-a364-579973fc0460"/><circle cx="42.27" cy="46.99" r="1" class="e92a2523-ec8f-4965-bb09-aef8b87832a5"/><circle cx="55.27" cy="40.99" r="1" class="e92a2523-ec8f-4965-bb09-aef8b87832a5"/><circle cx="182.77" cy="42.49" r="1" class="e92a2523-ec8f-4965-bb09-aef8b87832a5"/><circle cx="195.77" cy="48.49" r="1" class="e92a2523-ec8f-4965-bb09-aef8b87832a5"/><path d="M181.77,53.49" class="8f09931e-8dd8-4122-8c54-0c2af65511b3"/></g></g></svg>