<svg xmlns="http://www.w3.org/2000/svg" xmlns:xlink="http://www.w3.org/1999/xlink" id="Layer_1" width="34" height="34" x="0" y="0" enable-background="new 0 0 34 34" version="1.1" viewBox="0 0 34 34" xml:space="preserve"><title>Delete 13.4</title><desc>Created with Sketch.</desc><g><g><path d="M17,34C7.6,34,0,26.4,0,17S7.6,0,17,0s17,7.6,17,17S26.4,34,17,34z M19.8,17L19.8,17l4.6-4.6c0.8-0.8,0.8-2,0-2.8 c-0.8-0.8-2-0.8-2.8,0L17,14.2l-4.6-4.6c-0.8-0.8-2-0.8-2.8,0c-0.8,0.8-0.8,2,0,2.8l4.6,4.6l-4.6,4.6c-0.8,0.8-0.8,2,0,2.8 c0.8,0.8,2,0.8,2.8,0l4.6-4.6l4.6,4.6c0.8,0.8,2,0.8,2.8,0c0.8-0.8,0.8-2,0-2.8L19.8,17z"/></g></g></svg>